<?xml version="1.0" encoding="UTF-8"?>
<svg version="1.1" xmlns="http://www.w3.org/2000/svg" width="100" height="100">
<path d="M0 0 C7.425 -0.495 14.85 -0.99 22.5 -1.5 C24.78744141 -1.71849609 27.07488281 -1.93699219 29.43164062 -2.16210938 C41.68752496 -2.85400713 50.78588603 0.21529753 59.89498901 8.35025024 C69.35673956 17.3388503 73.87648512 25.91700487 74.31628418 39.03338623 C74.40248695 45.8922534 73.94983538 52.64100568 73.5 59.5 C73.005 70.225 72.51 80.95 72 92 C48.24 92 24.48 92 0 92 C0 61.64 0 31.28 0 0 Z M46 6 C46 12.6 46 19.2 46 26 C52.6 26 59.2 26 66 26 C61.41796421 20.59494815 61.41796421 20.59494815 56.60546875 15.47265625 C56.04279297 14.90869141 55.48011719 14.34472656 54.90039062 13.76367188 C54.33513672 13.20228516 53.76988281 12.64089844 53.1875 12.0625 C52.60291016 11.47404297 52.01832031 10.88558594 51.41601562 10.27929688 C49.08377 7.36577239 49.08377 7.36577239 46 6 Z M14 16 C14 17.32 14 18.64 14 20 C22.58 20 31.16 20 40 20 C40 18.68 40 17.36 40 16 C31.42 16 22.84 16 14 16 Z M14 24 C14 25.32 14 26.64 14 28 C22.58 28 31.16 28 40 28 C40 26.68 40 25.36 40 24 C31.42 24 22.84 24 14 24 Z M14 32 C14 33.32 14 34.64 14 36 C29.18 36 44.36 36 60 36 C60 34.68 60 33.36 60 32 C44.82 32 29.64 32 14 32 Z M14 40 C14 41.32 14 42.64 14 44 C29.18 44 44.36 44 60 44 C60 42.68 60 41.36 60 40 C44.82 40 29.64 40 14 40 Z M14 48 C14 49.32 14 50.64 14 52 C29.18 52 44.36 52 60 52 C60 50.68 60 49.36 60 48 C44.82 48 29.64 48 14 48 Z M21.75 60.1875 C19.59850481 63.64526012 18.54930884 65.91452907 19.4296875 69.98828125 C19.80047588 71.37746786 20.19765561 72.75996865 20.625 74.1328125 C21 76 21 76 20 79 C27.93200363 77.9273447 33.23940173 76.76059827 39 71 C39.33 71.66 39.66 72.32 40 73 C44.75481646 72.42365861 47.97048212 70.44931479 52 68 C51.505 66.515 51.505 66.515 51 65 C47.04 66.98 47.04 66.98 43 69 C42.34 68.01 41.68 67.02 41 66 C39.68 66 38.36 66 37 66 C35.65668346 67.99330842 34.32405988 69.99384866 33 72 C30.25 73.375 30.25 73.375 28 74 C28.495 73.175 28.99 72.35 29.5 71.5 C31.35129373 67.18031462 31.38799214 64.65590566 31 60 C29.17899853 57.80079504 29.17899853 57.80079504 26.625 57.5625 C23.80211212 57.77680484 23.80211212 57.77680484 21.75 60.1875 Z " fill="#3FC056" transform="translate(14,4)"/>
<path d="M0 0 C1.32 0 2.64 0 4 0 C4.36637589 6.35051546 4.36637589 6.35051546 2.625 9.4375 C1 11 1 11 -1 11 C-2.0257259 6.58937864 -2.03684712 4.07369424 0 0 Z " fill="#3FC056" transform="translate(38,65)"/>
</svg>
